<?xml version="1.0" encoding="UTF-8"?>
<svg version="1.1" xmlns="http://www.w3.org/2000/svg" width="100" height="100">
<path d="M0 0 C4.54917542 2.65443045 7.51141423 6.38776826 10.80859375 10.421875 C13.49265428 13.09991746 15.86493864 13.55838603 19.55078125 14.16015625 C19.63328125 14.77890625 19.71578125 15.39765625 19.80078125 16.03515625 C20.36336584 18.34453192 20.36336584 18.34453192 22.61328125 19.41015625 C23.25265625 19.65765625 23.89203125 19.90515625 24.55078125 20.16015625 C24.73828125 22.97265625 24.73828125 22.97265625 24.55078125 26.16015625 C24.05835937 26.58683594 23.5659375 27.01351562 23.05859375 27.453125 C20.76791151 30.04646215 21.18867687 32.2717952 21.23828125 35.66015625 C21.24214844 36.80484375 21.24601562 37.94953125 21.25 39.12890625 C21.32850235 42.3357217 21.32850235 42.3357217 23.55078125 45.16015625 C24.2268679 49.79842512 24.13679564 53.88157939 22.17578125 58.16015625 C18.84700038 60.69637024 16.07269535 60.95245182 11.99609375 61.55859375 C9.22149123 62.04249046 9.22149123 62.04249046 6.55078125 64.78515625 C2.78483067 67.76653379 0.57521813 67.6545728 -4.08203125 67.53125 C-6.55617277 67.14338953 -8.2880132 66.40011059 -10.44921875 65.16015625 C-11.37734375 65.96453125 -12.30546875 66.76890625 -13.26171875 67.59765625 C-18.81033235 72.4064547 -25.45890693 71.60947172 -32.44921875 71.16015625 C-38.18534373 69.46056366 -42.1270907 65.03523174 -45.44921875 60.16015625 C-45.44921875 59.17015625 -45.44921875 58.18015625 -45.44921875 57.16015625 C-47.15078125 57.19109375 -47.15078125 57.19109375 -48.88671875 57.22265625 C-52.44921875 57.16015625 -52.44921875 57.16015625 -53.44921875 56.16015625 C-53.32546875 54.55140625 -53.32546875 54.55140625 -53.19921875 52.91015625 C-53.51654473 48.15026648 -55.1381488 47.38844945 -58.44921875 44.16015625 C-58.76171875 40.84765625 -58.76171875 40.84765625 -58.44921875 38.16015625 C-59.76921875 37.50015625 -61.08921875 36.84015625 -62.44921875 36.16015625 C-61.55203125 35.81984375 -61.55203125 35.81984375 -60.63671875 35.47265625 C-58.24635454 34.2880421 -58.24635454 34.2880421 -57.07421875 31.66015625 C-54.97367651 28.4285528 -53.10908362 28.05478989 -49.44921875 27.16015625 C-49.35640625 25.82984375 -49.35640625 25.82984375 -49.26171875 24.47265625 C-47.99481692 19.30759495 -44.74980678 17.02721493 -40.44921875 14.16015625 C-37.75 13.96484375 -37.75 13.96484375 -34.76171875 14.03515625 C-33.27091797 14.06222656 -33.27091797 14.06222656 -31.75 14.08984375 C-30.99074219 14.11304688 -30.23148438 14.13625 -29.44921875 14.16015625 C-29.26359375 13.01546875 -29.26359375 13.01546875 -29.07421875 11.84765625 C-28.44921875 9.16015625 -28.44921875 9.16015625 -26.44921875 6.16015625 C-26.94421875 5.17015625 -26.94421875 5.17015625 -27.44921875 4.16015625 C-25.75651042 3.44401042 -24.06380208 2.72786458 -22.37109375 2.01171875 C-20.42956035 1.1965287 -20.42956035 1.1965287 -18.63671875 0.0859375 C-13.16184846 -2.23110582 -5.5632409 -1.90765039 0 0 Z " fill="#AAB8C5" transform="translate(67.44921875,14.83984375)"/>
<path d="M0 0 C4.54917542 2.65443045 7.51141423 6.38776826 10.80859375 10.421875 C13.49265428 13.09991746 15.86493864 13.55838603 19.55078125 14.16015625 C19.63328125 14.77890625 19.71578125 15.39765625 19.80078125 16.03515625 C20.36336584 18.34453192 20.36336584 18.34453192 22.61328125 19.41015625 C23.25265625 19.65765625 23.89203125 19.90515625 24.55078125 20.16015625 C24.73828125 22.97265625 24.73828125 22.97265625 24.55078125 26.16015625 C24.05835937 26.58683594 23.5659375 27.01351562 23.05859375 27.453125 C20.76791151 30.04646215 21.18867687 32.2717952 21.23828125 35.66015625 C21.24214844 36.80484375 21.24601562 37.94953125 21.25 39.12890625 C21.32850235 42.3357217 21.32850235 42.3357217 23.55078125 45.16015625 C24.2268679 49.79842512 24.13679564 53.88157939 22.17578125 58.16015625 C18.84700038 60.69637024 16.07269535 60.95245182 11.99609375 61.55859375 C9.22149123 62.04249046 9.22149123 62.04249046 6.55078125 64.78515625 C2.78483067 67.76653379 0.57521813 67.6545728 -4.08203125 67.53125 C-6.55617277 67.14338953 -8.2880132 66.40011059 -10.44921875 65.16015625 C-11.37734375 65.96453125 -12.30546875 66.76890625 -13.26171875 67.59765625 C-18.81033235 72.4064547 -25.45890693 71.60947172 -32.44921875 71.16015625 C-38.18534373 69.46056366 -42.1270907 65.03523174 -45.44921875 60.16015625 C-45.44921875 59.17015625 -45.44921875 58.18015625 -45.44921875 57.16015625 C-47.75921875 56.50015625 -50.06921875 55.84015625 -52.44921875 55.16015625 C-52.19921875 52.78515625 -52.19921875 52.78515625 -51.44921875 50.16015625 C-48.88611047 48.36598045 -47.61802569 48.16015625 -44.44921875 48.16015625 C-43.78921875 46.84015625 -43.12921875 45.52015625 -42.44921875 44.16015625 C-40.06357798 44.73600057 -37.78239091 45.3824322 -35.44921875 46.16015625 C-34.45921875 46.16015625 -33.46921875 46.16015625 -32.44921875 46.16015625 C-30.19921875 48.91015625 -30.19921875 48.91015625 -28.44921875 52.16015625 C-28.69921875 54.53515625 -28.69921875 54.53515625 -29.44921875 56.16015625 C-28.78921875 54.84015625 -28.12921875 53.52015625 -27.44921875 52.16015625 C-25.13921875 52.16015625 -22.82921875 52.16015625 -20.44921875 52.16015625 C-20.44921875 53.48015625 -20.44921875 54.80015625 -20.44921875 56.16015625 C-23.41921875 56.65515625 -23.41921875 56.65515625 -26.44921875 57.16015625 C-26.77921875 58.48015625 -27.10921875 59.80015625 -27.44921875 61.16015625 C-19.52921875 61.16015625 -11.60921875 61.16015625 -3.44921875 61.16015625 C-3.94421875 59.18015625 -3.94421875 59.18015625 -4.44921875 57.16015625 C-7.41921875 56.66515625 -7.41921875 56.66515625 -10.44921875 56.16015625 C-10.44921875 54.84015625 -10.44921875 53.52015625 -10.44921875 52.16015625 C-9.60157959 52.13042725 -9.60157959 52.13042725 -8.73681641 52.10009766 C-6.18213878 52.00497389 -3.62829334 51.89524567 -1.07421875 51.78515625 C0.25996094 51.73875 0.25996094 51.73875 1.62109375 51.69140625 C2.471875 51.65273437 3.32265625 51.6140625 4.19921875 51.57421875 C4.98474121 51.54279785 5.77026367 51.51137695 6.57958984 51.47900391 C8.78081064 51.32020975 8.78081064 51.32020975 10.55078125 49.16015625 C10.86344981 45.88814986 10.86344981 45.88814986 10.81640625 42.03515625 C10.8183197 41.33245605 10.82023315 40.62975586 10.82220459 39.90576172 C10.823566 38.41959271 10.81987257 36.9334118 10.81152344 35.44726562 C10.80082279 33.16899979 10.81141964 30.89152248 10.82421875 28.61328125 C10.82289715 27.17057117 10.82033474 25.72786159 10.81640625 24.28515625 C10.81415039 22.96773437 10.81189453 21.6503125 10.80957031 20.29296875 C10.88243564 17.06081495 10.88243564 17.06081495 8.55078125 15.16015625 C6.56721642 14.44607291 4.56762688 13.77397883 2.55078125 13.16015625 C2.22078125 13.49015625 1.89078125 13.82015625 1.55078125 14.16015625 C-0.74073292 14.248066 -3.03494399 14.26709663 -5.328125 14.2578125 C-6.35811867 14.25569008 -6.35811867 14.25569008 -7.40892029 14.25352478 C-9.60989676 14.24791104 -11.81077284 14.23535632 -14.01171875 14.22265625 C-15.50064958 14.21764301 -16.98958199 14.2130798 -18.47851562 14.20898438 C-22.1354495 14.19793718 -25.79232433 14.18066338 -29.44921875 14.16015625 C-28.90198192 10.7855291 -28.39431875 9.07780625 -26.44921875 6.16015625 C-26.77921875 5.50015625 -27.10921875 4.84015625 -27.44921875 4.16015625 C-25.75651042 3.44401042 -24.06380208 2.72786458 -22.37109375 2.01171875 C-20.42956035 1.1965287 -20.42956035 1.1965287 -18.63671875 0.0859375 C-13.16184846 -2.23110582 -5.5632409 -1.90765039 0 0 Z " fill="#C0E2DB" transform="translate(67.44921875,14.83984375)"/>
<path d="M0 0 C14.19 0 28.38 0 43 0 C43 0.33 43 0.66 43 1 C32.77 1 22.54 1 12 1 C12 1.66 12 2.32 12 3 C16.62 3 21.24 3 26 3 C26 3.66 26 4.32 26 5 C25.01 5.33 24.02 5.66 23 6 C21.68 13.59 20.36 21.18 19 29 C19.99 29.33 20.98 29.66 22 30 C21 31 21 31 17.4375 31.0625 C16.303125 31.041875 15.16875 31.02125 14 31 C14 31.66 14 32.32 14 33 C23.24 33 32.48 33 42 33 C42 33.33 42 33.66 42 34 C37.21287067 34.09886835 32.42633525 34.17146623 27.63842773 34.21972656 C26.00974171 34.23984381 24.38112792 34.26714137 22.75268555 34.30175781 C20.41176542 34.35027429 18.07179982 34.37296632 15.73046875 34.390625 C15.00224411 34.41127014 14.27401947 34.43191528 13.52372742 34.45318604 C11.46166992 34.45410156 11.46166992 34.45410156 8 34 C6.20825195 32.04980469 6.20825195 32.04980469 5 30 C1.99152582 28.77479736 1.99152582 28.77479736 -1 28 C-1.66 27.67 -2.32 27.34 -3 27 C-3 18.75 -3 10.5 -3 2 C-0.525 2.495 -0.525 2.495 2 3 C2 2.34 2 1.68 2 1 C1.34 0.67 0.68 0.34 0 0 Z " fill="#C3DBED" transform="translate(30,31)"/>
<path d="M0 0 C3.94060277 2.36436166 6.8804845 5.2074455 9.4453125 9.0546875 C9.4453125 9.3846875 9.4453125 9.7146875 9.4453125 10.0546875 C8.4965625 10.3434375 7.5478125 10.6321875 6.5703125 10.9296875 C3.39319672 11.82293859 3.39319672 11.82293859 1.4453125 14.0546875 C-1.62744141 14.28173828 -1.62744141 14.28173828 -5.53125 14.25 C-6.2164975 14.2471701 -6.901745 14.24434021 -7.60775757 14.24142456 C-9.79857777 14.23022031 -11.98899066 14.20511609 -14.1796875 14.1796875 C-15.6640566 14.16965798 -17.1484321 14.16053208 -18.6328125 14.15234375 C-22.27357011 14.13028044 -25.91408906 14.09574926 -29.5546875 14.0546875 C-29.00745067 10.68006035 -28.4997875 8.9723375 -26.5546875 6.0546875 C-26.8846875 5.3946875 -27.2146875 4.7346875 -27.5546875 4.0546875 C-25.86197917 3.33854167 -24.16927083 2.62239583 -22.4765625 1.90625 C-20.5350291 1.09105995 -20.5350291 1.09105995 -18.7421875 -0.01953125 C-13.23586933 -2.34988376 -5.54902183 -2.05330777 0 0 Z " fill="#C7EDE6" transform="translate(67.5546875,14.9453125)"/>
<path d="M0 0 C0.66 0.33 1.32 0.66 2 1 C1.67 1.33 1.34 1.66 1 2 C0.87839249 3.87889247 0.82029768 5.7619666 0.7890625 7.64453125 C0.74652344 9.37219727 0.74652344 9.37219727 0.703125 11.13476562 C0.65129377 13.57472091 0.60694867 16.01484739 0.5703125 18.45507812 C0.52390625 20.18854492 0.52390625 20.18854492 0.4765625 21.95703125 C0.45674316 23.01897705 0.43692383 24.08092285 0.41650391 25.17504883 C-0.04902957 28.33254463 -0.85022829 29.68616153 -3 32 C-5.58747106 33.87368594 -6.82854086 34.00699833 -10.0625 33.875 C-13 33 -13 33 -14.875 31.3125 C-16.28983481 28.40422845 -16.21776233 26.19384754 -16 23 C-17.32 22.34 -18.64 21.68 -20 21 C-19.1028125 20.6596875 -19.1028125 20.6596875 -18.1875 20.3125 C-15.79713579 19.12788585 -15.79713579 19.12788585 -14.625 16.5 C-12.52445776 13.26839655 -10.65986487 12.89463364 -7 12 C-6.9071875 10.6696875 -6.9071875 10.6696875 -6.8125 9.3125 C-5.81397923 5.24160762 -4.10938685 3.72071349 -1 1 C-0.67 0.67 -0.34 0.34 0 0 Z " fill="#CDEFE9" transform="translate(25,30)"/>
<path d="M0 0 C0.33 0 0.66 0 1 0 C1.07419134 4.21749219 1.1286204 8.43463811 1.16479492 12.65258789 C1.17987589 14.08722552 1.2003438 15.52181708 1.22631836 16.95629883 C1.26273437 19.01915859 1.27973243 21.08140858 1.29296875 23.14453125 C1.3086792 24.38565674 1.32438965 25.62678223 1.34057617 26.90551758 C1 30 1 30 -0.24023438 31.91015625 C-2.4682296 33.28998015 -3.83751723 33.34555334 -6.44921875 33.29296875 C-7.29677734 33.28330078 -8.14433594 33.27363281 -9.01757812 33.26367188 C-9.89865234 33.23853516 -10.77972656 33.21339844 -11.6875 33.1875 C-12.58017578 33.17396484 -13.47285156 33.16042969 -14.39257812 33.14648438 C-16.59566166 33.11114079 -18.79752582 33.06180493 -21 33 C-21 34.32 -21 35.64 -21 37 C-19.02 37.33 -17.04 37.66 -15 38 C-14.67 39.32 -14.34 40.64 -14 42 C-21.92 42 -29.84 42 -38 42 C-37.67 40.68 -37.34 39.36 -37 38 C-34.03 37.505 -34.03 37.505 -31 37 C-31 35.68 -31 34.36 -31 33 C-33.31 33 -35.62 33 -38 33 C-38.144375 33.639375 -38.28875 34.27875 -38.4375 34.9375 C-39 37 -39 37 -40 38 C-41.99958364 38.04080783 -44.00045254 38.04254356 -46 38 C-46 37.67 -46 37.34 -46 37 C-44.02 36.34 -42.04 35.68 -40 35 C-40.309375 34.4225 -40.61875 33.845 -40.9375 33.25 C-41.92583364 31.15705816 -42.5168613 29.25464725 -43 27 C-42.50902832 27.65049316 -42.01805664 28.30098633 -41.51220703 28.97119141 C-38.07111548 31.75014872 -35.03597217 31.54089146 -30.8046875 31.4609375 C-30.01603302 31.46002106 -29.22737854 31.45910461 -28.41482544 31.4581604 C-26.75223755 31.45213094 -25.08966019 31.43640442 -23.42724609 31.41162109 C-20.8768739 31.37502689 -18.32795151 31.3706024 -15.77734375 31.37109375 C-14.16144573 31.36126549 -12.54555757 31.34960975 -10.9296875 31.3359375 C-10.16510223 31.33371185 -9.40051697 31.33148621 -8.61276245 31.32919312 C-4.34460964 31.39758209 -4.34460964 31.39758209 -1 29 C-0.62703444 25.99027343 -0.62703444 25.99027343 -0.5859375 22.4609375 C-0.54726562 21.15898438 -0.50859375 19.85703125 -0.46875 18.515625 C-0.43729237 17.13542138 -0.40604509 15.75521296 -0.375 14.375 C-0.33682066 12.98695459 -0.29776895 11.59893289 -0.2578125 10.2109375 C-0.16327057 6.80742815 -0.07772103 3.40392835 0 0 Z " fill="#4F3533" transform="translate(78,34)"/>
<path d="M0 0 C2.38564077 0.57584432 4.66682784 1.22227595 7 2 C7.99 2 8.98 2 10 2 C12.1875 5 12.1875 5 14 8 C13.3125 9.94921875 13.3125 9.94921875 12 12 C5.29786497 13.91988243 -2.19106369 12.96004525 -9 12 C-9.33 10.35 -9.66 8.7 -10 7 C-5.375 4 -5.375 4 -2 4 C-1.34 2.68 -0.68 1.36 0 0 Z " fill="#F8F7EA" transform="translate(25,59)"/>
<path d="M0 0 C0.66 0.99 1.32 1.98 2 3 C2.78375 2.79375 3.5675 2.5875 4.375 2.375 C5.674375 2.189375 5.674375 2.189375 7 2 C9 4 9 4 9 7 C10.32 7.66 11.64 8.32 13 9 C12.125 13.875 12.125 13.875 11 15 C9.31816052 15.23287008 7.6287584 15.41264166 5.9375 15.5625 C4.55884766 15.68818359 4.55884766 15.68818359 3.15234375 15.81640625 C2.44207031 15.87699219 1.73179688 15.93757813 1 16 C0.95101562 15.22914062 0.90203125 14.45828125 0.8515625 13.6640625 C0.77679688 12.66117188 0.70203125 11.65828125 0.625 10.625 C0.55539063 9.62726562 0.48578125 8.62953125 0.4140625 7.6015625 C0.23636036 4.84491121 0.23636036 4.84491121 -2 3 C-4.57061311 2.35232207 -4.57061311 2.35232207 -7 2 C-7 1.34 -7 0.68 -7 0 C-4.27584084 -1.36207958 -2.87220643 -0.86166193 0 0 Z " fill="#F3F1E5" transform="translate(78,27)"/>
<path d="M0 0 C1.15759801 3.47279404 1.02260483 5.98038824 0.87890625 9.63671875 C0.83056641 10.93544922 0.78222656 12.23417969 0.73242188 13.57226562 C0.67590048 14.94401533 0.61925831 16.31576007 0.5625 17.6875 C0.50925949 19.07094416 0.45651922 20.45440766 0.40429688 21.83789062 C0.27445883 25.22548325 0.13948625 28.61279314 0 32 C-0.33 32 -0.66 32 -1 32 C-1.33 21.77 -1.66 11.54 -2 1 C-16.52 1 -31.04 1 -46 1 C-46 1.66 -46 2.32 -46 3 C-46.99 3 -47.98 3 -49 3 C-49 6.3 -49 9.6 -49 13 C-49.33 13 -49.66 13 -50 13 C-50.22142255 11.04310341 -50.4267568 9.08438048 -50.625 7.125 C-50.74101563 6.03445312 -50.85703125 4.94390625 -50.9765625 3.8203125 C-50.98429687 2.88960937 -50.99203125 1.95890625 -51 1 C-48.59736812 -1.40263188 -47.99193857 -1.26933657 -44.70556641 -1.35058594 C-43.8176944 -1.37691101 -42.92982239 -1.40323608 -42.01504517 -1.43035889 C-41.05359589 -1.4481842 -40.09214661 -1.46600952 -39.1015625 -1.484375 C-38.11505707 -1.5084845 -37.12855164 -1.53259399 -36.1121521 -1.55743408 C-34.02246553 -1.60578896 -31.93265887 -1.64916787 -29.84277344 -1.68798828 C-26.64464511 -1.74962141 -23.44757543 -1.83270664 -20.25 -1.91796875 C-18.22138208 -1.96223591 -16.19273627 -2.00524613 -14.1640625 -2.046875 C-13.20666168 -2.07279724 -12.24926086 -2.09871948 -11.2628479 -2.12542725 C-9.9215834 -2.14600189 -9.9215834 -2.14600189 -8.55322266 -2.16699219 C-7.37646469 -2.19125275 -7.37646469 -2.19125275 -6.17593384 -2.21600342 C-3.65870717 -1.9661201 -2.10737327 -1.39517305 0 0 Z " fill="#8C8C95" transform="translate(78,31)"/>
<path d="M0 0 C0.99 0 1.98 0 3 0 C3.16898112 5.35810969 2.56511422 10.19349172 1.5 15.4375 C1.35691406 16.16904297 1.21382812 16.90058594 1.06640625 17.65429688 C0.71678704 19.43735486 0.35922312 21.21885203 0 23 C-1.32 23.33 -2.64 23.66 -4 24 C-4.16068744 18.67635518 -3.59522557 13.84146495 -2.5625 8.625 C-2.42779297 7.90183594 -2.29308594 7.17867187 -2.15429688 6.43359375 C-1.13541667 1.13541667 -1.13541667 1.13541667 0 0 Z " fill="#9694B4" transform="translate(53,36)"/>
<path d="M0 0 C0.99 0.33 1.98 0.66 3 1 C2.690625 1.7425 2.38125 2.485 2.0625 3.25 C0.70759859 6.55026583 0.70759859 6.55026583 0 10 C1.41666667 11.58333333 1.41666667 11.58333333 3 13 C3 13.99 3 14.98 3 16 C0.75 15.875 0.75 15.875 -2 15 C-4.4375 12.25 -4.4375 12.25 -6 9 C-5.22370669 4.92446014 -3.02756534 2.72480881 0 0 Z " fill="#918FAA" transform="translate(44,40)"/>
<path d="M0 0 C3.7952131 1.49097658 5.61042731 3.75700849 8 7 C6.7508258 10.45925163 5.32472205 13.14693203 3 16 C1.68 15.67 0.36 15.34 -1 15 C-0.690625 14.4225 -0.38125 13.845 -0.0625 13.25 C1.37297564 10.23632787 1.37297564 10.23632787 2 7 C1.01971384 5.65210653 0.02028865 4.31787285 -1 3 C-0.67 2.01 -0.34 1.02 0 0 Z " fill="#918FA9" transform="translate(58,40)"/>
<path d="M0 0 C-0.33 1.98 -0.66 3.96 -1 6 C-1.495 4.02 -1.495 4.02 -2 2 C-12.89 2 -23.78 2 -35 2 C-35 1.34 -35 0.68 -35 0 C-30.65860566 -0.16800236 -26.31701785 -0.32851981 -21.97509766 -0.48217773 C-20.49878539 -0.53547011 -19.02254481 -0.59078903 -17.54638672 -0.64819336 C-15.42170666 -0.73046212 -13.29687349 -0.80538335 -11.171875 -0.87890625 C-9.2552002 -0.94960327 -9.2552002 -0.94960327 -7.29980469 -1.02172852 C-4.59337842 -1.00390727 -2.54687307 -0.83306311 0 0 Z " fill="#ACBBC8" transform="translate(77,32)"/>
<path d="M0 0 C1.10601562 -0.00580078 1.10601562 -0.00580078 2.234375 -0.01171875 C7.7466804 -0.0016598 7.7466804 -0.0016598 10 1.125 C10 1.785 10 2.445 10 3.125 C3.4 3.125 -3.2 3.125 -10 3.125 C-10 2.465 -10 1.805 -10 1.125 C-6.84150315 -0.45424842 -3.4634872 -0.01816514 0 0 Z " fill="#9D929E" transform="translate(52,71.875)"/>
<path d="M0 0 C1.98 0 3.96 0 6 0 C6.33 0.99 6.66 1.98 7 3 C9.475 3.495 9.475 3.495 12 4 C12 4.33 12 4.66 12 5 C8.37 5 4.74 5 1 5 C1 4.34 1 3.68 1 3 C-1.97 3 -4.94 3 -8 3 C-8 2.67 -8 2.34 -8 2 C-5.36 1.67 -2.72 1.34 0 1 C0 0.67 0 0.34 0 0 Z " fill="#F3FBF9" transform="translate(48,17)"/>
<path d="M0 0 C2.64 0 5.28 0 8 0 C8 1.32 8 2.64 8 4 C5.36 4 2.72 4 0 4 C0 2.68 0 1.36 0 0 Z " fill="#AEA7B5" transform="translate(48,67)"/>
<path d="M0 0 C0.99 0 1.98 0 3 0 C3.08159574 4.16138263 2.98248524 7.9472484 2 12 C1.67 12 1.34 12 1 12 C1 9.36 1 6.72 1 4 C0.34 4.99 -0.32 5.98 -1 7 C-1.04254356 5.00045254 -1.04080783 2.99958364 -1 1 C-0.67 0.67 -0.34 0.34 0 0 Z " fill="#878297" transform="translate(53,36)"/>
<path d="M0 0 C2.0625 0.4375 2.0625 0.4375 4 1 C4 1.66 4 2.32 4 3 C3.01 3 2.02 3 1 3 C1 6.3 1 9.6 1 13 C0.67 13 0.34 13 0 13 C-0.19397476 11.02145742 -0.38001321 9.0421352 -0.5625 7.0625 C-0.66691406 5.96035156 -0.77132813 4.85820313 -0.87890625 3.72265625 C-0.91886719 2.82417969 -0.95882813 1.92570312 -1 1 C-0.67 0.67 -0.34 0.34 0 0 Z " fill="#A3AEBA" transform="translate(28,31)"/>
<path d="M0 0 C0.33 1.32 0.66 2.64 1 4 C1.66 4 2.32 4 3 4 C3 5.65 3 7.3 3 9 C2.34 8.01 1.68 7.02 1 6 C0.34 6.99 -0.32 7.98 -1 9 C-0.67 6.03 -0.34 3.06 0 0 Z " fill="#847E92" transform="translate(51,44)"/>
</svg>
