<?xml version="1.0" encoding="utf-8"?>
<!-- Generator: Adobe Illustrator 16.0.0, SVG Export Plug-In . SVG Version: 6.00 Build 0)  -->
<!DOCTYPE svg PUBLIC "-//W3C//DTD SVG 1.1//EN" "http://www.w3.org/Graphics/SVG/1.1/DTD/svg11.dtd">
<svg xmlns="http://www.w3.org/2000/svg" xmlns:xlink="http://www.w3.org/1999/xlink" version="1.1" id="Layer_1" x="0px" y="0px" width="1400px" height="980px" viewBox="0 0 1400 980" enable-background="new 0 0 1400 980" xml:space="preserve">
<g>
	<g>
		<g>
			
		</g>
	</g>
	<g>
		<g>
			<path d="M842.1,821.1H682.8v-26h159.3V821.1z M688,815.9h148.8v-15.5H688V815.9z"/>
		</g>
		<g>
			<rect x="685.4" y="681.7" fill="#80E2FF" width="154.1" height="116"/>
			<path d="M842.1,800.3H682.8V679.1h159.3V800.3z M688,795.1h148.8V684.4H688V795.1z"/>
		</g>
	</g>
	<g>
		<g>
			<path fill="#FFE184" d="M1217.6,367.6c0-19.9-16.1-36-35.9-36H870.1c-19.9,0-36,16.1-36,36v207.8h383.4V367.6z"/>
			<path d="M1220.2,578.1H831.5V367.6c0-21.3,17.3-38.6,38.6-38.6h311.5c21.3,0,38.5,17.3,38.5,38.6V578.1z M836.8,572.8H1215V367.6     c0-18.4-14.9-33.3-33.3-33.3H870.1c-18.4,0-33.3,15-33.3,33.3V572.8z"/>
		</g>
		<g>
			<path d="M1181.6,635.7H870.1c-21.3,0-38.6-17.3-38.6-38.6v-24.3h388.7v24.3C1220.2,618.4,1202.9,635.7,1181.6,635.7z      M836.8,578.1v19.1c0,18.4,15,33.3,33.3,33.3h311.5c18.4,0,33.3-14.9,33.3-33.3v-19.1H836.8z"/>
		</g>
	</g>
	<g>
		<g>
			<path d="M429.3,705.9H243.1c-17.5,0-31.7-14.2-31.7-31.7v-35.6H461v35.6C461,691.7,446.7,705.9,429.3,705.9z M216.6,643.9v30.3     c0,14.6,11.9,26.5,26.5,26.5h186.2c14.6,0,26.5-11.9,26.5-26.5v-30.3H216.6z"/>
		</g>
		<g>
			<rect x="214" y="338.7" fill="#97DD7A" width="244.3" height="302.5"/>
			<path d="M461,643.9H211.4V336.1H461V643.9z M216.6,638.6h239.1V341.4H216.6V638.6z"/>
		</g>
		<g>
			<path d="M461,341.4H211.4v-22c0-17.5,14.2-31.7,31.7-31.7h186.2c17.5,0,31.7,14.2,31.7,31.7V341.4z M216.6,336.1h239.1v-16.8     c0-14.6-11.9-26.5-26.5-26.5H243.1c-14.6,0-26.5,11.9-26.5,26.5V336.1z"/>
		</g>
	</g>
	<g>
		<rect x="302.2" y="662.8" fill="#BCBEC0" width="67.9" height="18.9"/>
		<path d="M372.7,684.4h-73.1v-24.1h73.1V684.4z M304.9,679.1h62.6v-13.7h-62.6V679.1z"/>
	</g>
	<g>
		<rect x="308.1" y="305.6" width="56.1" height="5.2"/>
	</g>
	<g>
		<rect x="308.1" y="318.2" width="56.1" height="5.2"/>
	</g>
	<g>
		<path d="M393.7,323.4c-4.9,0-8.9-4-8.9-8.9c0-4.9,4-8.9,8.9-8.9c4.9,0,8.9,4,8.9,8.9C402.6,319.4,398.6,323.4,393.7,323.4z     M393.7,310.8c-2,0-3.7,1.7-3.7,3.7c0,2,1.7,3.7,3.7,3.7c2,0,3.7-1.7,3.7-3.7C397.4,312.5,395.7,310.8,393.7,310.8z"/>
	</g>
	<g>
		<rect x="458.4" y="487.4" width="64.5" height="5.2"/>
	</g>
	<g>
		<rect x="769.7" y="487.4" width="64.5" height="5.2"/>
	</g>
	<g>
		<path fill="#F1F2F2" d="M592.5,446.2h-29.2c-22.3,0-40.4,18.1-40.4,40.4v6.7c0,22.3,18.1,40.5,40.4,40.5h29.2V446.2z"/>
		<path d="M595.1,536.4h-31.8c-23.7,0-43.1-19.3-43.1-43.1v-6.7c0-23.7,19.3-43.1,43.1-43.1h31.8V536.4z M563.3,448.8    c-20.9,0-37.8,17-37.8,37.8v6.7c0,20.9,17,37.8,37.8,37.8h26.6v-82.4H563.3z"/>
	</g>
	<g>
		<path d="M609.7,548.2h-19.8V431.8h19.8V548.2z M595.1,543h9.4V437h-9.4V543z"/>
	</g>
	<g>
		<path fill="#F1F2F2" d="M700,533.8h29.2c22.3,0,40.4-18.1,40.4-40.4v-6.7c0-22.3-18.1-40.4-40.4-40.4H700V533.8z"/>
		<path d="M729.2,536.4h-31.8v-92.9h31.8c23.7,0,43.1,19.3,43.1,43.1v6.7C772.3,517.1,753,536.4,729.2,536.4z M702.6,531.2h26.6    c20.9,0,37.8-17,37.8-37.8v-6.7c0-20.9-17-37.8-37.8-37.8h-26.6V531.2z"/>
	</g>
	<g>
		<path d="M702.6,548.2h-19.8V431.8h19.8V548.2z M688,543h9.4V437H688V543z"/>
	</g>
	<g>
		<path fill="#FFE184" d="M607.1,468.7h42.8c2.7,0,4.9-2.2,4.9-4.9c0-2.7-2.2-4.9-4.9-4.9h-42.8V468.7z"/>
		<path d="M649.9,471.3h-45.5v-15.1h45.5c4.2,0,7.5,3.4,7.5,7.5C657.5,467.9,654.1,471.3,649.9,471.3z M609.7,466h40.2    c1.3,0,2.3-1,2.3-2.3s-1-2.3-2.3-2.3h-40.2V466z"/>
	</g>
	<g>
		<path fill="#FFE184" d="M607.1,521.2h42.8c2.7,0,4.9-2.2,4.9-4.9c0-2.7-2.2-4.9-4.9-4.9h-42.8V521.2z"/>
		<path d="M649.9,523.8h-45.5v-15.1h45.5c4.2,0,7.5,3.4,7.5,7.5C657.5,520.4,654.1,523.8,649.9,523.8z M609.7,518.6h40.2    c1.3,0,2.3-1,2.3-2.3c0-1.3-1-2.3-2.3-2.3h-40.2V518.6z"/>
	</g>
	<g>
		<path fill="#BCBEC0" d="M1032,603.9c0,7.2-5.9,13.1-13.1,13.1c-7.2,0-13.1-5.9-13.1-13.1c0-7.2,5.8-13.1,13.1-13.1    C1026.2,590.9,1032,596.7,1032,603.9z"/>
		<path d="M1019,619.6c-8.6,0-15.7-7-15.7-15.7c0-8.6,7-15.7,15.7-15.7s15.7,7,15.7,15.7C1034.6,612.6,1027.6,619.6,1019,619.6z     M1019,593.5c-5.8,0-10.4,4.7-10.4,10.4c0,5.8,4.7,10.4,10.4,10.4c5.8,0,10.4-4.7,10.4-10.4C1029.4,598.2,1024.7,593.5,1019,593.5    z"/>
	</g>
	<g>
		<rect x="1044.3" y="601.3" width="33" height="5.2"/>
	</g>
	<g>
		<rect x="960.6" y="601.3" width="33" height="5.2"/>
	</g>
	<g>
		<rect x="980.9" y="633.1" fill="#E6E7E8" width="76.1" height="28.8"/>
		<path d="M1059.7,664.5h-81.4v-34.1h81.4V664.5z M983.5,659.3h70.9v-23.6h-70.9V659.3z"/>
	</g>
	<g>
		<path d="M1078.9,682.3H959.7v-23h119.2V682.3z M964.9,677.1h108.8v-12.6H964.9V677.1z"/>
	</g>
	<g>
		<path fill="#FFFFFF" d="M427.4,490c0,50.4-40.9,91.3-91.3,91.3c-50.4,0-91.3-40.9-91.3-91.3c0-50.4,40.9-91.3,91.3-91.3    C386.6,398.7,427.4,439.6,427.4,490z"/>
		<path d="M336.2,583.9c-51.8,0-93.9-42.1-93.9-93.9c0-51.8,42.1-93.9,93.9-93.9s93.9,42.1,93.9,93.9    C430.1,541.8,387.9,583.9,336.2,583.9z M336.2,401.4c-48.9,0-88.6,39.8-88.6,88.6c0,48.9,39.8,88.6,88.6,88.6    c48.9,0,88.6-39.8,88.6-88.6C424.8,441.1,385.1,401.4,336.2,401.4z"/>
	</g>
	<g>
		<path fill="#FFFFFF" d="M1110.2,453.6c0,50.4-40.9,91.3-91.3,91.3c-50.4,0-91.3-40.9-91.3-91.3c0-50.4,40.9-91.3,91.3-91.3    C1069.4,362.3,1110.2,403.2,1110.2,453.6z"/>
		<path d="M1019,547.4c-51.8,0-93.9-42.1-93.9-93.9c0-51.8,42.1-93.9,93.9-93.9c51.8,0,93.9,42.1,93.9,93.9    C1112.8,505.3,1070.7,547.4,1019,547.4z M1019,364.9c-48.9,0-88.6,39.8-88.6,88.6c0,48.9,39.8,88.6,88.6,88.6    c48.9,0,88.6-39.8,88.6-88.6C1107.6,404.7,1067.8,364.9,1019,364.9z"/>
	</g>
	<g>
		<g>
			<path d="M333.7,548.1v-5.2c29.2,0,52.9-23.7,52.9-52.9c0-14.1-5.5-27.4-15.5-37.4l3.7-3.7c11,11,17,25.6,17,41.1     C391.8,522.1,365.7,548.1,333.7,548.1z"/>
		</g>
		<g>
			<path d="M292.6,531.1c-11-11-17-25.6-17-41.1c0-32.1,26.1-58.1,58.1-58.1v5.2c-29.2,0-52.9,23.7-52.9,52.9     c0,14.1,5.5,27.4,15.5,37.4L292.6,531.1z"/>
		</g>
		<g>
			<polygon points="335,451.8 332.4,447.2 354.5,434.5 332.4,421.7 335,417.2 364.9,434.5    "/>
		</g>
		<g>
			<polygon points="332.4,562.8 302.4,545.5 332.4,528.2 335,532.8 312.9,545.5 335,558.3    "/>
		</g>
	</g>
	<g>
		<rect x="970.6" y="408.3" width="96.8" height="5.2"/>
	</g>
	<g>
		<polygon fill="#80E2FF" points="1039.2,467.2 1039.2,410.9 996.7,410.9 996.7,467.2 983.5,467.2 1016.9,514.5 1050.2,467.2   "/>
		<path d="M1016.9,519.1l-38.4-54.5h15.6v-56.3h47.8v56.3h13.4L1016.9,519.1z M988.6,469.8l28.3,40.2l28.3-40.2h-8.6v-56.3h-37.3    v56.3H988.6z"/>
	</g>
	<g>
		<path d="M1053.5,297.7h-5.2c0-17.3-14.1-31.4-31.4-31.4c-17.3,0-31.4,14.1-31.4,31.4h-5.2c0-20.2,16.4-36.6,36.7-36.6    C1037.1,261.1,1053.5,277.5,1053.5,297.7z"/>
	</g>
	<g>
		<path d="M1077.1,297.7h-5.2c0-30.3-24.7-55-55-55s-55,24.7-55,55h-5.2c0-33.2,27-60.2,60.2-60.2S1077.1,264.5,1077.1,297.7z"/>
	</g>
	<g>
		<path d="M1100.6,297.7h-5.2c0-43.3-35.2-78.5-78.5-78.5s-78.5,35.2-78.5,78.5h-5.2c0-46.2,37.6-83.7,83.7-83.7    C1063,214,1100.6,251.6,1100.6,297.7z"/>
	</g>
	<g>
		<path d="M364.8,262.3h-5.2c0-14.3-11.6-25.9-25.9-25.9s-25.9,11.6-25.9,25.9h-5.2c0-17.2,14-31.1,31.1-31.1    C350.8,231.2,364.8,245.1,364.8,262.3z"/>
	</g>
	<g>
		<path d="M384.5,262.3h-5.2c0-25.1-20.5-45.6-45.6-45.6c-25.1,0-45.6,20.5-45.6,45.6h-5.2c0-28,22.8-50.8,50.8-50.8    C361.7,211.5,384.5,234.3,384.5,262.3z"/>
	</g>
	<g>
		<rect x="927.7" y="677.1" width="34.6" height="5.2"/>
	</g>
	<g>
		<rect x="1076.3" y="677.1" width="50.8" height="5.2"/>
	</g>
	<g>
		<path d="M1400,815.9h-309.1c-1.4,0-2.6-1.2-2.6-2.6V711.2H951V706h139.9c1.4,0,2.6,1.2,2.6,2.6v102.1H1400V815.9z"/>
	</g>
	<g>
		<path d="M336.2,821.1H0v-5.2h333.6V703.3h5.2v115.2C338.8,820,337.6,821.1,336.2,821.1z"/>
	</g>
	<g>
		<path d="M654.9,821.1H500.8c-1.4,0-2.6-1.2-2.6-2.6V590.9c0-1.4,1.2-2.6,2.6-2.6h154.1c1.4,0,2.6,1.2,2.6,2.6v227.6    C657.5,820,656.3,821.1,654.9,821.1z M503.4,815.9h148.8V593.5H503.4V815.9z"/>
	</g>
	<g>
		<polygon fill="#FF9B95" points="466,813.3 388.9,768.8 466,724.3   "/>
		<path d="M468.6,817.8l-84.9-49l84.9-49V817.8z M394.1,768.8l69.2,40v-79.9L394.1,768.8z"/>
	</g>
	<g>
		<polygon fill="#FF9B95" points="873.9,813.3 951,768.8 873.9,724.3   "/>
		<path d="M871.3,817.8v-98l84.9,49L871.3,817.8z M876.5,728.8v79.9l69.2-40L876.5,728.8z"/>
	</g>
	<g>
		<g>
			<rect x="970.6" y="766.2" width="20.9" height="5.2"/>
		</g>
		<g>
			<rect x="1008" y="766.2" width="22" height="5.2"/>
		</g>
		<g>
			<rect x="1046.4" y="766.2" width="20.9" height="5.2"/>
		</g>
	</g>
	<g>
		<rect x="351.2" y="766.2" width="18.9" height="5.2"/>
	</g>
	<g>
		<path fill="#80E2FF" d="M546.4,241.7h7.6c0-47.3,38.3-85.6,85.6-85.6c30,0,56.3,15.4,71.6,38.7c4.9-1.7,10.2-2.6,15.7-2.6    c27.4,0,49.5,22.2,49.5,49.5c0,5.4-0.9,10.5-2.5,15.4c18.3,4.7,31.8,21.3,31.8,41.1c0,23.5-19,42.5-42.5,42.5h-85.9h-75.3h-55.7    c-27.4,0-49.5-22.2-49.5-49.5C496.9,263.8,519.1,241.7,546.4,241.7z"/>
		<path d="M763.3,343.3H546.4c-28.7,0-52.1-23.4-52.1-52.1c0-28.7,23.4-52.1,52.1-52.1h5c1.4-47.4,40.4-85.6,88.2-85.6    c29.1,0,56.1,14.2,72.6,38.2c4.8-1.4,9.7-2.1,14.6-2.1c28.8,0,52.1,23.4,52.1,52.1c0,4.6-0.6,9.1-1.8,13.6    c18.5,6,31.2,23.3,31.2,42.9C808.4,323.1,788.2,343.3,763.3,343.3z M546.4,244.3c-25.9,0-46.9,21-46.9,46.9    c0,25.9,21,46.9,46.9,46.9h216.8c22,0,39.9-17.9,39.9-39.9c0-18.2-12.3-34-29.9-38.6l-2.7-0.7l0.9-2.6c1.5-4.8,2.3-9.7,2.3-14.6    c0-25.9-21-46.9-46.9-46.9c-5,0-10,0.8-14.9,2.5l-1.9,0.6l-1.1-1.7c-15.4-23.5-41.4-37.5-69.4-37.5c-45.8,0-83,37.2-83,83v2.6    H546.4z"/>
	</g>
	<g>
		<path d="M519.7,291.2h-5.2c0-17.6,14.4-32,32-32v5.2C531.7,264.4,519.7,276.4,519.7,291.2z"/>
	</g>
	<g>
		<path d="M692.1,207.2c-11.7-17.8-31.3-28.4-52.5-28.4v-5.2c23,0,44.3,11.5,56.9,30.8L692.1,207.2z"/>
	</g>
	<g>
		<polygon points="604.7,388.5 458.4,388.5 458.4,383.3 599.5,383.3 599.5,340.7 604.7,340.7   "/>
	</g>
	<g>
		<polygon points="834.1,388.5 690.1,388.5 690.1,340.7 695.3,340.7 695.3,383.3 834.1,383.3   "/>
	</g>
	<g>
		<g>
			<rect y="721.3" width="20.9" height="5.2"/>
		</g>
		<g>
			<rect x="50.7" y="721.3" width="39.7" height="5.2"/>
		</g>
		<g>
			<polygon points="143.6,726.6 120.1,726.6 120.1,721.3 138.4,721.3 138.4,703 143.6,703    "/>
		</g>
		<g>
			<rect x="138.4" y="660.5" width="5.2" height="24.3"/>
		</g>
		<g>
			<polygon points="143.6,642.2 138.4,642.2 138.4,623.9 120.1,623.9 120.1,618.7 143.6,618.7    "/>
		</g>
		<g>
			<polygon points="79.5,623.9 56,623.9 56,600.4 61.2,600.4 61.2,618.7 79.5,618.7    "/>
		</g>
		<g>
			<path d="M61.2,563.9H56v-48.7h5.2V563.9z M61.2,478.7H56V430h5.2V478.7z"/>
		</g>
		<g>
			<polygon points="61.2,393.5 56,393.5 56,370 79.5,370 79.5,375.2 61.2,375.2    "/>
		</g>
		<g>
			<rect x="96.4" y="370" width="22.5" height="5.2"/>
		</g>
		<g>
			<polygon points="159.3,375.2 135.8,375.2 135.8,370 154.1,370 154.1,351.6 159.3,351.6    "/>
		</g>
		<g>
			<rect x="154.1" y="269.9" width="5.2" height="46.7"/>
		</g>
		<g>
			<polygon points="159.3,234.9 154.1,234.9 154.1,216.6 135.8,216.6 135.8,211.3 159.3,211.3    "/>
		</g>
		<g>
			<rect x="55.4" y="211.3" width="45.9" height="5.2"/>
		</g>
		<g>
			<rect y="211.3" width="20.9" height="5.2"/>
		</g>
	</g>
	<g>
		<g>
			<rect x="1379.1" y="162.9" width="20.9" height="5.2"/>
		</g>
		<g>
			<rect x="1312.9" y="162.9" width="37.8" height="5.2"/>
		</g>
		<g>
			<polygon points="1266.2,186.5 1261,186.5 1261,162.9 1284.5,162.9 1284.5,168.2 1266.2,168.2    "/>
		</g>
		<g>
			<path d="M1266.2,350h-5.2v-46.7h5.2V350z M1266.2,268.2h-5.2v-46.7h5.2V268.2z"/>
		</g>
		<g>
			<polygon points="1284.5,408.5 1261,408.5 1261,385 1266.2,385 1266.2,403.3 1284.5,403.3    "/>
		</g>
		<g>
			<polygon points="1327.7,426.9 1322.5,426.9 1322.5,408.5 1304.2,408.5 1304.2,403.3 1327.7,403.3    "/>
		</g>
		<g>
			<path d="M1327.7,578.6h-5.2v-43.4h5.2V578.6z M1327.7,502.7h-5.2v-43.4h5.2V502.7z"/>
		</g>
		<g>
			<polygon points="1327.7,634.7 1304.2,634.7 1304.2,629.4 1322.5,629.4 1322.5,611.1 1327.7,611.1    "/>
		</g>
		<g>
			<polygon points="1276.7,653 1271.5,653 1271.5,629.4 1295,629.4 1295,634.7 1276.7,634.7    "/>
		</g>
		<g>
			<polygon points="1295,723.3 1271.5,723.3 1271.5,699.8 1276.7,699.8 1276.7,718.1 1295,718.1    "/>
		</g>
		<g>
			<rect x="1320.2" y="718.1" width="33.6" height="5.2"/>
		</g>
		<g>
			<rect x="1379.1" y="718.1" width="20.9" height="5.2"/>
		</g>
	</g>
	<g>
		<g>
			<rect x="211.4" y="959.1" width="5.2" height="20.9"/>
		</g>
		<g>
			<polygon points="216.6,912.7 211.4,912.7 211.4,889.2 234.9,889.2 234.9,894.4 216.6,894.4    "/>
		</g>
		<g>
			<path d="M525.7,894.4h-41.5v-5.2h41.5V894.4z M453,894.4h-41.5v-5.2H453V894.4z M380.3,894.4h-41.5v-5.2h41.5V894.4z      M307.6,894.4h-41.5v-5.2h41.5V894.4z"/>
		</g>
		<g>
			<polygon points="580.5,912.7 575.2,912.7 575.2,894.4 556.9,894.4 556.9,889.2 580.5,889.2    "/>
		</g>
		<g>
			<polygon points="598.8,938.5 575.2,938.5 575.2,915 580.5,915 580.5,933.3 598.8,933.3    "/>
		</g>
		<g>
			<path d="M892.6,938.5h-42v-5.2h42V938.5z M819.1,938.5h-42v-5.2h42V938.5z M745.7,938.5h-42v-5.2h42V938.5z M672.2,938.5h-42     v-5.2h42V938.5z"/>
		</g>
		<g>
			<polygon points="947.6,938.5 924.1,938.5 924.1,933.3 942.4,933.3 942.4,915 947.6,915    "/>
		</g>
		<g>
			<polygon points="947.6,881.3 942.4,881.3 942.4,857.8 966,857.8 966,863 947.6,863    "/>
		</g>
		<g>
			<rect x="1003" y="857.8" width="49.3" height="5.2"/>
		</g>
		<g>
			<polygon points="1112.8,881.3 1107.6,881.3 1107.6,863 1089.3,863 1089.3,857.8 1112.8,857.8    "/>
		</g>
		<g>
			<polygon points="1131.2,910.1 1107.6,910.1 1107.6,886.6 1112.8,886.6 1112.8,904.9 1131.2,904.9    "/>
		</g>
		<g>
			<polygon points="1204.7,928.4 1199.5,928.4 1199.5,910.1 1181.2,910.1 1181.2,904.9 1204.7,904.9    "/>
		</g>
		<g>
			<rect x="1199.5" y="959.1" width="5.2" height="20.9"/>
		</g>
	</g>
	<g>
		<g>
			<rect x="186.8" width="5.2" height="20.9"/>
		</g>
		<g>
			<rect x="186.8" y="42" width="5.2" height="28"/>
		</g>
		<g>
			<polygon points="210.3,114.6 186.8,114.6 186.8,91 192,91 192,109.4 210.3,109.4    "/>
		</g>
		<g>
			<rect x="249.6" y="109.4" width="52.4" height="5.2"/>
		</g>
		<g>
			<polygon points="364.8,132.9 359.6,132.9 359.6,114.6 341.2,114.6 341.2,109.4 364.8,109.4    "/>
		</g>
		<g>
			<polygon points="383.1,170.4 359.6,170.4 359.6,146.9 364.8,146.9 364.8,165.2 383.1,165.2    "/>
		</g>
		<g>
			<rect x="414" y="165.2" width="41.1" height="5.2"/>
		</g>
		<g>
			<polygon points="509.5,170.4 486,170.4 486,165.2 504.3,165.2 504.3,146.9 509.5,146.9    "/>
		</g>
		<g>
			<polygon points="509.5,104.8 504.3,104.8 504.3,81.3 527.9,81.3 527.9,86.5 509.5,86.5    "/>
		</g>
		<g>
			<path d="M762.2,86.5h-44.6v-5.2h44.6V86.5z M684.1,86.5h-44.6v-5.2h44.6V86.5z M606,86.5h-44.6v-5.2H606V86.5z"/>
		</g>
		<g>
			<polygon points="819.2,104.8 814,104.8 814,86.5 795.6,86.5 795.6,81.3 819.2,81.3    "/>
		</g>
		<g>
			<polygon points="837.5,153 814,153 814,129.4 819.2,129.4 819.2,147.7 837.5,147.7    "/>
		</g>
		<g>
			<path d="M987.6,153h-42.9v-5.2h42.9V153z M912.6,153h-42.9v-5.2h42.9V153z"/>
		</g>
		<g>
			<polygon points="1043.4,153 1019.8,153 1019.8,147.7 1038.1,147.7 1038.1,129.4 1043.4,129.4    "/>
		</g>
		<g>
			<polygon points="1043.4,113.7 1038.1,113.7 1038.1,90.2 1061.7,90.2 1061.7,95.4 1043.4,95.4    "/>
		</g>
		<g>
			<rect x="1089.5" y="90.2" width="37.1" height="5.2"/>
		</g>
		<g>
			<polygon points="1178.1,95.4 1154.6,95.4 1154.6,90.2 1172.9,90.2 1172.9,71.9 1178.1,71.9    "/>
		</g>
		<g>
			<rect x="1172.9" width="5.2" height="20.9"/>
		</g>
	</g>
	<g>
		<polygon fill="#F1F2F2" points="777.5,728.8 752.9,771.6 737.7,745.4 707.5,797.7 737.7,797.7 768,797.7 817.3,797.7   "/>
		<path d="M821.9,800.3H703l34.7-60.2l15.1,26.2l24.7-42.7L821.9,800.3z M712.1,795.1h100.7L777.5,734l-24.7,42.7l-15.1-26.2    L712.1,795.1z"/>
	</g>
	<g>
		<path fill="#FFE184" d="M762.4,715.5c0,6.8-5.5,12.4-12.4,12.4s-12.4-5.5-12.4-12.4s5.5-12.4,12.4-12.4S762.4,708.6,762.4,715.5z"/>
		<path d="M750.1,730.5c-8.3,0-15-6.7-15-15c0-8.3,6.7-15,15-15c8.3,0,15,6.7,15,15C765,723.7,758.3,730.5,750.1,730.5z     M750.1,705.7c-5.4,0-9.7,4.4-9.7,9.7c0,5.4,4.4,9.8,9.7,9.8c5.4,0,9.7-4.4,9.7-9.8C759.8,710.1,755.4,705.7,750.1,705.7z"/>
	</g>
	<g>
		<path fill="#FFE184" d="M640,672.3c0,34.3-27.8,62.2-62.2,62.2c-34.3,0-62.2-27.8-62.2-62.2c0-34.3,27.8-62.2,62.2-62.2    C612.2,610.1,640,638,640,672.3z"/>
		<path d="M577.8,737.1c-35.7,0-64.8-29.1-64.8-64.8s29.1-64.8,64.8-64.8c35.7,0,64.8,29.1,64.8,64.8S613.6,737.1,577.8,737.1z     M577.8,612.7c-32.8,0-59.5,26.7-59.5,59.5s26.7,59.5,59.5,59.5c32.8,0,59.5-26.7,59.5-59.5S610.7,612.7,577.8,612.7z"/>
	</g>
	<g>
		<g>
			<polygon points="610.3,698.4 605.1,698.4 605.1,650.2 566.7,637.5 566.7,688.7 561.4,688.7 561.4,630.2 610.3,646.4    "/>
		</g>
		<g>
			<path fill="#FFFFFF" d="M607.7,698.4c0,6.8-5.5,12.3-12.3,12.3c-6.8,0-12.3-5.5-12.3-12.3c0-6.8,5.5-12.3,12.3-12.3     C602.2,686.1,607.7,691.6,607.7,698.4z"/>
			<path d="M595.4,713.3c-8.2,0-14.9-6.7-14.9-14.9c0-8.2,6.7-14.9,14.9-14.9c8.2,0,14.9,6.7,14.9,14.9     C610.3,706.7,603.6,713.3,595.4,713.3z M595.4,688.8c-5.3,0-9.7,4.3-9.7,9.7c0,5.3,4.3,9.7,9.7,9.7s9.7-4.3,9.7-9.7     C605.1,693.1,600.8,688.8,595.4,688.8z"/>
		</g>
		<g>
			<path fill="#FFFFFF" d="M564,687.2c0,6.8-5.5,12.3-12.3,12.3c-6.8,0-12.3-5.5-12.3-12.3c0-6.8,5.5-12.3,12.3-12.3     C558.5,674.9,564,680.4,564,687.2z"/>
			<path d="M551.8,702.1c-8.2,0-14.9-6.7-14.9-14.9c0-8.2,6.7-14.9,14.9-14.9c8.2,0,14.9,6.7,14.9,14.9     C566.7,695.5,560,702.1,551.8,702.1z M551.8,677.6c-5.3,0-9.7,4.3-9.7,9.7c0,5.3,4.3,9.7,9.7,9.7c5.3,0,9.7-4.3,9.7-9.7     C561.4,681.9,557.1,677.6,551.8,677.6z"/>
		</g>
		<g>
			<polygon points="615.4,668.5 554.7,648.6 556.3,643.7 617,663.5    "/>
		</g>
	</g>
	<g>
		<rect x="522.8" y="760.7" width="108.1" height="5.2"/>
	</g>
	<g>
		<rect x="522.8" y="787.1" width="46" height="5.2"/>
	</g>
</g>
</svg>
